<svg xmlns="http://www.w3.org/2000/svg" viewBox="0 0 14.2 14.2"><defs><style>.cls-1{fill:#fff;}</style></defs><g id="Layer_2" data-name="Layer 2"><g id="Layer_1-2" data-name="Layer 1"><path class="cls-1" d="M14.2,1.86V12.34a.24.24,0,0,0,0,.08,2.08,2.08,0,0,1-2.13,1.78H8.77v-5h2.1l.42-2.5H8.77V5h2.52V2.5H8.82A2.49,2.49,0,0,0,6.27,5.05V6.69H4.61v2.5H6.26v5H2a1.71,1.71,0,0,1-.8-.19A2,2,0,0,1,0,12.07V2A2,2,0,0,1,1.17.22,4,4,0,0,1,1.86,0H12.34l.08,0A2,2,0,0,1,14,1.22,4.32,4.32,0,0,1,14.2,1.86Z"/></g></g></svg>